#!OML:ASF F:\VICON\USERDATA\INSTALL\rory3\rory3.ASF
:FULLY-SPECIFIED
:DEGREES
1656
root 2.56318 17.4091 -0.774613 369.15 10.5129 -9.49747
lowerback 20.3303 1.96916 -6.07422
upperback 7.27922 1.40844 -0.502904
thorax -3.57922 0.652598 2.58889
lowerneck -13.9377 -7.34259 -12.7664
upperneck 29.5122 -10.5284 11.3039
head 13.6354 -4.66205 4.95534
rclavicle 0 3.18055e-014
rhumerus -14.543 22.9589 -84.1962
rradius 65.1594
rwrist 31.8063
rhand -38.3693 16.1813
rfingers 7.12502
rthumb -11.3954 -13.489
lclavicle 0 3.18055e-014
lhumerus -34.5191 -32.9335 90.2657
lradius 67.6197
lwrist 3.07879
lhand -32.6458 9.52479
lfingers 7.12502
lthumb -5.87226 39.4234
rfemur -76.3399 -19.6257 23.6451
rtibia 129.414
rfoot -11.2856 6.68621
rtoes -4.63329
lfemur -40.6929 2.22305 -6.32461
ltibia 33.7776
lfoot -2.00308 -9.4904
ltoes -12.5508
1657
root 2.5915 17.457 -0.70867 369.11 10.3144 -9.30734
lowerback 20.168 2.03683 -6.19608
upperback 7.11296 1.47672 -0.502403
thorax -3.68345 0.690592 2.64335
lowerneck -13.9817 -7.57907 -12.8624
upperneck 29.5407 -10.9334 11.5494
head 13.7493 -4.8198 4.99956
rclavicle -5.48646e-014 -2.8625e-014
rhumerus -14.5176 22.821 -84.3289
rradius 64.0948
rwrist 31.9989
rhand -38.1159 16.0455
rfingers 7.12502
rthumb -11.1511 -13.6382
lclavicle -5.48646e-014 -2.8625e-014
lhumerus -34.5528 -32.9451 90.5524
lradius 67.0033
lwrist 3.15275
lhand -32.175 9.64013
lfingers 7.12502
lthumb -5.41771 39.5509
rfemur -75.6965 -19.5738 23.1972
rtibia 129.003
rfoot -11.102 6.5088
rtoes -5.76151
lfemur -39.8492 1.98961 -6.49327
ltibia 33.0407
lfoot -1.99505 -9.09631
ltoes -12.3825
1658
root 2.61749 17.5006 -0.642113 369.118 10.1416 -9.13749
lowerback 19.9798 2.04903 -6.24709
upperback 6.96838 1.48782 -0.54473
thorax -3.74368 0.70026 2.62592
lowerneck -14.1822 -7.77893 -12.7384
upperneck 29.5357 -11.2514 11.5653
head 13.8362 -4.93598 4.91989
rclavicle 5.24792e-014 -2.70347e-014
rhumerus -14.318 22.6945 -84.5288
rradius 62.9557
rwrist 32.232
rhand -37.9193 15.8623
rfingers 7.12502
rthumb -10.9614 -13.8316
lclavicle 5.24792e-014 -2.70347e-014
lhumerus -34.5495 -32.8924 90.7233
lradius 66.4482
lwrist 3.21788
lhand -31.7598 9.933
lfingers 7.12502
lthumb -5.01678 39.8536
rfemur -75.1109 -19.5119 22.7557
rtibia 128.568
rfoot -10.5793 6.41469
rtoes -5.3404
lfemur -39.0926 1.79669 -6.64446
ltibia 32.3225
lfoot -1.99358 -8.77628
ltoes -12.4445
1659
root 2.64422 17.5403 -0.574286 369.161 9.90684 -9.05289
lowerback 19.7436 2.07078 -6.23602
upperback 6.74329 1.52388 -0.563665
thorax -3.86781 0.725448 2.59256
lowerneck -14.2157 -7.94504 -12.6892
upperneck 29.5553 -11.5284 11.6071
head 13.8979 -5.04546 4.87616
rclavicle -3.4191e-014 3.33958e-014
rhumerus -14.3707 22.5052 -84.8363
rradius 61.9048
rwrist 32.4944
rhand -37.4962 15.9623
rfingers 7.12502
rthumb -10.5533 -13.7528
lclavicle -3.4191e-014 3.33958e-014
lhumerus -34.7702 -32.7416 91.0337
lradius 65.905
lwrist 3.18045
lhand -31.3431 10.0472
lfingers 7.12502
lthumb -4.61447 39.9769
rfemur -74.2365 -19.38 22.3851
rtibia 128.061
rfoot -10.0369 6.53269
rtoes -3.61876
lfemur -38.3825 1.72747 -6.73987
ltibia 31.6183
lfoot -2.00018 -8.50228
ltoes -13.2783
1660
root 2.67003 17.5822 -0.507454 369.153 9.6498 -8.93812
lowerback 19.5513 2.10518 -6.24889
upperback 6.51728 1.56981 -0.560022
thorax -4.01682 0.755776 2.59385
lowerneck -14.1568 -8.10177 -12.8273
upperneck 29.5328 -11.7928 11.7924
head 13.9455 -5.15724 4.9273
rclavicle -8.74653e-015 4.29375e-014
rhumerus -14.5401 22.3524 -85.1204
rradius 60.872
rwrist 32.5096
rhand -37.0649 16.3367
rfingers 7.12502
rthumb -10.1373 -13.399
lclavicle -8.74653e-015 4.29375e-014
lhumerus -34.9604 -32.5831 91.3969
lradius 65.2922
lwrist 3.22863
lhand -30.7838 10.112
lfingers 7.12502
lthumb -4.07441 40.0528
rfemur -73.2501 -19.2213 22.0476
rtibia 127.456
rfoot -9.42226 6.48055
rtoes -3.37682
lfemur -37.6291 1.6054 -6.83388
ltibia 30.9284
lfoot -1.91272 -8.17414
ltoes -14.2118
1661
root 2.69536 17.6293 -0.439283 369.141 9.41278 -8.78225
lowerback 19.3373 2.11503 -6.28233
upperback 6.32061 1.5835 -0.556499
thorax -4.11985 0.768659 2.61493
lowerneck -14.0413 -8.25481 -12.9415
upperneck 29.3383 -12.0321 11.9318
head 13.8964 -5.26409 4.95367
rclavicle -3.02153e-014 6.36111e-014
rhumerus -14.5822 22.3933 -85.3459
rradius 59.7964
rwrist 31.945
rhand -37.0746 17.0082
rfingers 7.12502
rthumb -10.1466 -12.7272
lclavicle -3.02153e-014 6.36111e-014
lhumerus -35.0769 -32.425 91.7081
lradius 64.666
lwrist 3.36839
lhand -30.2192 10.3397
lfingers 7.12502
lthumb -3.52917 40.2902
rfemur -72.5896 -18.9876 21.6529
rtibia 126.835
rfoot -8.26774 6.22674
rtoes -4.44995
lfemur -36.849 1.46265 -6.99332
ltibia 30.234
lfoot -1.86128 -7.85122
ltoes -15.7824
1662
root 2.72008 17.6754 -0.374136 369.129 9.1957 -8.58556
lowerback 19.1602 2.1114 -6.30285
upperback 6.15668 1.57924 -0.58481
thorax -4.20369 0.771989 2.5985
lowerneck -13.9851 -8.4422 -13.021
upperneck 29.0847 -12.3264 12.0935
head 13.8443 -5.38699 4.96833
rclavicle -1.43125e-014 2.54444e-014
rhumerus -14.5007 22.4099 -85.5387
rradius 58.7004
rwrist 31.3995
rhand -37.0592 17.6837
rfingers 7.12502
rthumb -10.1318 -12.0524
lclavicle -1.43125e-014 2.54444e-014
lhumerus -35.1091 -32.292 91.915
lradius 64.0324
lwrist 3.42249
lhand -29.7712 10.6032
lfingers 7.12502
lthumb -3.09653 40.5605
rfemur -72.0039 -18.7724 21.1083
rtibia 126.224
rfoot -6.63375 6.13504
rtoes -3.71594
lfemur -36.0249 1.29578 -7.21604
ltibia 29.4831
lfoot -1.85992 -7.50971
ltoes -16.9275
1663
root 2.7455 17.7158 -0.310664 369.129 8.92346 -8.37735
lowerback 19.0336 2.10576 -6.35297
upperback 5.97 1.56111 -0.626211
thorax -4.33692 0.770232 2.58667
lowerneck -14.1471 -8.62342 -12.9788
upperneck 29.0461 -12.6033 12.1278
head 13.9101 -5.49362 4.91484
rclavicle -7.95139e-015 1.11319e-014
rhumerus -14.504 22.3659 -85.7822
rradius 57.7627
rwrist 31.1567
rhand -36.6277 18.0516
rfingers 7.12502
rthumb -9.71545 -11.7044
lclavicle -7.95139e-015 1.11319e-014
lhumerus -35.1926 -32.0251 92.1095
lradius 63.3985
lwrist 3.2287
lhand -29.1516 10.8604
lfingers 7.12502
lthumb -2.49807 40.8255
rfemur -71.3851 -18.5754 20.538
rtibia 125.615
rfoot -4.81937 6.09403
rtoes -2.48797
lfemur -35.1857 1.10964 -7.43227
ltibia 28.6656
lfoot -1.80518 -7.06874
ltoes -17.471
1664
root 2.77007 17.7546 -0.243995 369.154 8.55563 -8.22611
lowerback 18.7986 2.09487 -6.39195
upperback 5.7431 1.5456 -0.650379
thorax -4.45708 0.77012 2.58794
lowerneck -14.1975 -8.69816 -12.9069
upperneck 29.0472 -12.7313 12.1115
head 13.9358 -5.54246 4.86892
rclavicle -1.59028e-014 2.22639e-014
rhumerus -14.6507 22.3231 -86.124
rradius 56.9656
rwrist 30.8341
rhand -36.2534 18.2377
rfingers 7.12502
rthumb -9.35428 -11.5348
lclavicle -1.59028e-014 2.22639e-014
lhumerus -35.4108 -31.5753 92.3441
lradius 62.7899
lwrist 3.04934
lhand -28.4871 10.9294
lfingers 7.12502
lthumb -1.85637 40.9011
rfemur -70.9205 -18.2249 20.0699
rtibia 124.958
rfoot -2.87027 5.94284
rtoes -3.18163
lfemur -34.3787 1.04667 -7.59617
ltibia 27.825
lfoot -1.68529 -6.66138
ltoes -17.75
1665
root 2.7939 17.7941 -0.175598 369.171 8.26338 -8.074
lowerback 18.4818 2.07548 -6.36786
upperback 5.54002 1.53839 -0.677023
thorax -4.50767 0.771926 2.55093
lowerneck -14.0713 -8.75874 -12.8205
upperneck 28.9384 -12.8539 12.113
head 13.8741 -5.59322 4.82994
rclavicle -2.62396e-014 -3.49861e-014
rhumerus -14.8786 22.1346 -86.4741
rradius 56.2672
rwrist 30.5435
rhand -35.9771 18.198
rfingers 7.12502
rthumb -9.08767 -11.5863
lclavicle -2.62396e-014 -3.49861e-014
lhumerus -35.6011 -31.1917 92.5425
lradius 62.1976
lwrist 3.00428
lhand -27.7946 10.709
lfingers 7.12502
lthumb -1.18756 40.6854
rfemur -70.479 -17.9377 19.6545
rtibia 124.231
rfoot -0.824036 5.70467
rtoes -4.2704
lfemur -33.5747 0.907697 -7.74409
ltibia 26.9867
lfoot -1.56495 -6.20485
ltoes -17.763
1666
root 2.81693 17.8335 -0.110665 369.162 8.06127 -7.94382
lowerback 18.2227 2.05762 -6.27366
upperback 5.38127 1.54525 -0.670055
thorax -4.54117 0.779071 2.50654
lowerneck -14.0301 -8.9211 -12.8914
upperneck 28.8223 -13.1164 12.2463
head 13.8778 -5.70321 4.84208
rclavicle 3.33958e-014 1.59028e-014
rhumerus -15.0911 21.8575 -86.7034
rradius 55.6347
rwrist 30.3225
rhand -35.6354 18.2684
rfingers 7.12502
rthumb -8.75801 -11.5299
lclavicle 3.33958e-014 1.59028e-014
lhumerus -35.6795 -31.0015 92.7372
lradius 61.7373
lwrist 3.10956
lhand -27.0811 11.062
lfingers 7.12502
lthumb -0.498419 41.0412
rfemur -69.9905 -17.7003 19.2476
rtibia 123.44
rfoot 1.37603 5.3438
rtoes -3.71706
lfemur -32.7644 0.735704 -7.88143
ltibia 26.1437
lfoot -1.44288 -5.80383
ltoes -18.1384
